<?xml version="1.0" encoding="UTF-8" standalone="no"?><!DOCTYPE svg PUBLIC "-//W3C//DTD SVG 1.1//EN" "http://www.w3.org/Graphics/SVG/1.1/DTD/svg11.dtd"><svg width="100%" height="100%" viewBox="0 0 222 222" version="1.1" xmlns="http://www.w3.org/2000/svg" xmlns:xlink="http://www.w3.org/1999/xlink" xml:space="preserve" xmlns:serif="http://www.serif.com/" style="fill-rule:evenodd;clip-rule:evenodd;stroke-linejoin:round;stroke-miterlimit:2;"><rect id="Main" x="0" y="0" width="221.978" height="221.978" style="fill:#6f6f6f;"/><path id="BottomShadow" d="M180.615,53.184c10.358,6.677 17.222,18.316 17.222,31.547l0,75.016c0,20.702 -16.806,37.509 -37.508,37.509l-75.017,0c-13.216,0 -24.844,-6.85 -31.525,-17.189c5.851,3.772 12.815,5.961 20.286,5.961l75.017,0c20.701,0 37.508,-16.807 37.508,-37.508l0,-75.017c0,-7.486 -2.198,-14.462 -5.983,-20.319Z" style="fill:#474747;"/><path id="TopShadow" d="M169.389,82.107c0,-15.952 -12.951,-28.903 -28.904,-28.903l-57.808,0c-15.952,0 -28.903,12.951 -28.903,28.903l0,57.808c0,15.953 12.951,28.904 28.903,28.904l57.808,0c15.953,0 28.904,-12.951 28.904,-28.904l0,-57.808Zm-126.876,86.679c-10.351,-6.68 -17.209,-18.314 -17.209,-31.539l0,-75.016c0,-20.702 16.807,-37.509 37.508,-37.509l75.017,0c13.239,0 24.885,6.874 31.56,17.242c-5.853,-3.777 -12.822,-5.969 -20.299,-5.969l-75.017,0c-20.702,0 -37.509,16.806 -37.509,37.508l0,75.017c0,7.463 2.185,14.419 5.949,20.266Z" style="fill:#c1c1c1;"/><path d="M114.827,71.487c-2.552,-0.248 -5.123,-0.248 -7.676,0l-1.265,6.156c-2.447,0.374 -4.845,1.017 -7.151,1.916l-4.173,-4.699c-2.335,1.062 -4.561,2.347 -6.648,3.839l1.983,5.963c-1.932,1.547 -3.688,3.303 -5.235,5.235l-5.963,-1.983c-1.492,2.087 -2.777,4.313 -3.839,6.648l4.699,4.173c-0.899,2.306 -1.542,4.704 -1.916,7.151l-6.156,1.265c-0.248,2.553 -0.248,5.124 0,7.676l6.156,1.265c0.374,2.447 1.017,4.845 1.916,7.151l-4.699,4.173c1.062,2.335 2.347,4.561 3.839,6.648l5.963,-1.983c1.547,1.932 3.303,3.688 5.235,5.236l-1.983,5.962c2.087,1.492 4.313,2.777 6.648,3.839l4.173,-4.699c2.306,0.899 4.704,1.542 7.151,1.916l1.265,6.156c2.553,0.248 5.124,0.248 7.676,0l1.265,-6.156c2.447,-0.374 4.845,-1.017 7.151,-1.916l4.173,4.699c2.335,-1.062 4.561,-2.347 6.648,-3.839l-1.983,-5.962c1.932,-1.548 3.688,-3.304 5.236,-5.236l5.962,1.983c1.492,-2.087 2.777,-4.313 3.839,-6.648l-4.699,-4.173c0.899,-2.306 1.542,-4.704 1.916,-7.151l6.156,-1.265c0.248,-2.552 0.248,-5.123 0,-7.676l-6.156,-1.265c-0.374,-2.447 -1.017,-4.845 -1.916,-7.151l4.699,-4.173c-1.062,-2.335 -2.347,-4.561 -3.839,-6.648l-5.962,1.983c-1.548,-1.932 -3.304,-3.688 -5.236,-5.235l1.983,-5.963c-2.087,-1.492 -4.313,-2.777 -6.648,-3.839l-4.173,4.699c-2.306,-0.899 -4.704,-1.542 -7.151,-1.916l-1.265,-6.156Zm-3.838,20.335c10.579,0 19.167,8.588 19.167,19.167c0,10.579 -8.588,19.167 -19.167,19.167c-10.579,0 -19.167,-8.588 -19.167,-19.167c0,-10.579 8.588,-19.167 19.167,-19.167Z" style="fill:#fff;"/></svg>